<?xml version="1.0" encoding="UTF-8" standalone="no"?>
<!-- Created with Inkscape (http://www.inkscape.org/) -->

<svg
   xmlns:dc="http://purl.org/dc/elements/1.1/"
   xmlns:cc="http://creativecommons.org/ns#"
   xmlns:rdf="http://www.w3.org/1999/02/22-rdf-syntax-ns#"
   xmlns:svg="http://www.w3.org/2000/svg"
   xmlns="http://www.w3.org/2000/svg"
   xmlns:xlink="http://www.w3.org/1999/xlink"
   xmlns:sodipodi="http://sodipodi.sourceforge.net/DTD/sodipodi-0.dtd"
   xmlns:inkscape="http://www.inkscape.org/namespaces/inkscape"
   width="765"
   height="990"
   id="svg2"
   version="1.1"
   inkscape:version="0.48.4 r9939"
   sodipodi:docname="2015-electric_fly_in-flyer.svg">
  <defs
     id="defs4">
    <clipPath
       clipPathUnits="userSpaceOnUse"
       id="clipPath3209">
      <path
         id="path3211"
         style="opacity:0.5;fill:#000000;fill-opacity:1;stroke:#000000;stroke-width:6.21596479;stroke-miterlimit:4;stroke-opacity:1"
         d="m 283.65213,311.46286 670.45313,0 0,670.45313 -670.45313,0 z"
         inkscape:connector-curvature="0" />
    </clipPath>
    <clipPath
       clipPathUnits="userSpaceOnUse"
       id="clipPath4610">
      <rect
         style="opacity:0.2;fill-opacity:1;fill-rule:nonzero"
         id="rect4612"
         width="919.45093"
         height="467.24292"
         x="381.65887"
         y="1401.6378" />
    </clipPath>
  </defs>
  <sodipodi:namedview
     id="base"
     pagecolor="#ffffff"
     bordercolor="#666666"
     borderopacity="1.0"
     inkscape:pageopacity="0.0"
     inkscape:pageshadow="2"
     inkscape:zoom="0.86464646"
     inkscape:cx="382.5"
     inkscape:cy="495"
     inkscape:document-units="px"
     inkscape:current-layer="layer1"
     showgrid="false"
     units="in"
     inkscape:showpageshadow="true"
     inkscape:window-width="1920"
     inkscape:window-height="1033"
     inkscape:window-x="0"
     inkscape:window-y="25"
     inkscape:window-maximized="1"
     showguides="false"
     inkscape:guide-bbox="true"
     inkscape:snap-global="true"
     gridtolerance="10000">
    <inkscape:grid
       type="xygrid"
       id="grid4170"
       empspacing="8"
       visible="true"
       enabled="true"
       snapvisiblegridlinesonly="true"
       units="in"
       spacingx="0.125in"
       spacingy="0.125in"
       dotted="false" />
  </sodipodi:namedview>
  <metadata
     id="metadata7">
    <rdf:RDF>
      <cc:Work
         rdf:about="">
        <dc:format>image/svg+xml</dc:format>
        <dc:type
           rdf:resource="http://purl.org/dc/dcmitype/StillImage" />
        <dc:title />
      </cc:Work>
    </rdf:RDF>
  </metadata>
  <g
     inkscape:label="Layer 1"
     inkscape:groupmode="layer"
     id="layer1"
     transform="translate(0,-62.362)">
    <g
       id="g4028"
       transform="translate(142.52335,19.233338)">
      <g
         id="g3995">
        <path
           style="fill:none;stroke:#cccccc;stroke-width:1px;stroke-linecap:butt;stroke-linejoin:miter;stroke-opacity:1"
           d="m 411.26654,893.40762 c 0.3125,-3.21875 0.86855,-8.49079 2.03737,-10.5343 1.16882,-2.04351 6.98838,-10.86294 8.47364,-14.45095 1.48526,-3.58801 8.81434,-18.95908 8.74509,-24.12926 -0.0693,-5.17018 -2.10493,-6.65229 -2.23284,-8.54594 -0.12791,-1.89365 9.74143,-19.00447 11.19851,-20.7034 1.45708,-1.69893 18.16194,-9.06946 19.59004,-11.00305 1.4281,-1.93359 7.1189,-13.01063 9.48529,-14.08944 2.36639,-1.07881 6.43366,-3.28938 8.28613,-4.356 1.85247,-1.06662 9.0452,-8.2954 11.03062,-9.17278 1.98542,-0.87738 14.69262,1.45777 15.68319,1.22672 0.99057,-0.23105 10.75497,-6.98511 14.86186,-9.26531 4.10689,-2.2802 14.40004,-7.39905 16.29189,-8.67217 1.89185,-1.27312 1.02941,-2.04533 1.43566,-3.92033"
           id="path3215"
           inkscape:connector-curvature="0"
           transform="translate(0,62.362)"
           sodipodi:nodetypes="czzzzzzzzzzzzc" />
        <path
           style="fill:none;stroke:#cccccc;stroke-width:1px;stroke-linecap:butt;stroke-linejoin:miter;stroke-opacity:1"
           d="m 284.61048,764.78649 c 0,0 10.58056,-3.03698 14.84924,-3.53553 4.26868,-0.49855 21.964,1.60526 30.05204,1.06066 8.08804,-0.5446 7.9596,-6.5627 13.51714,-6.59252 5.55754,-0.0298 9.71564,7.9373 24.15254,8.54962 5.01284,0.21261 24.22248,-0.88123 28.4448,-2.7071 4.22232,-1.82587 10.06786,-9.34244 14.84925,-10.21016 4.78139,-0.86772 9.02268,2.16823 12.72792,2.12132 3.70524,-0.0469 8.4647,-5.61754 12.37437,-7.07107 3.90967,-1.45353 14.11348,-2.71234 19.09188,-2.82842 5.2284,1.25892 9.95219,2.50612 9.95219,2.50612"
           id="path3221"
           inkscape:connector-curvature="0"
           transform="translate(0,62.362)"
           sodipodi:nodetypes="czzzszzzzcc" />
        <path
           style="fill:none;stroke:#cccccc;stroke-width:1px;stroke-linecap:butt;stroke-linejoin:miter;stroke-opacity:1"
           d="m 521.8448,819.94082 -11.66726,-4.24264 -5.3033,-4.5962 -9.54594,-4.24264 -9.89949,-8.83883 -8.83884,-12.72792 -5.65685,-20.15255 -0.70711,-6.36396 c 0,0 -5.94713,-6.6051 -5.44791,-12.62253 0.50351,-6.06906 9.60341,-6.22559 17.06003,-18.27081 2.45154,-3.96015 1.94957,-5.81494 4.71568,-9.27878 2.76611,-3.46384 12.14287,-16.24269 15.30083,-16.86149 2.35368,-0.4612 7.3142,0.26206 9.71567,-0.41973 2.40147,-0.68179 4.71382,-2.65647 8.26653,-2.43198 3.55271,0.22449 14.03639,4.71883 15.72424,3.68014 1.68785,-1.03869 4.02697,-4.88967 4.606,-7.20587 0.57903,-2.3162 0.35264,-5.88751 1.50796,-7.34068 1.15532,-1.45317 6.62009,-3.38725 8.55759,-5.856"
           id="path3223"
           inkscape:connector-curvature="0"
           transform="translate(0,62.362)"
           sodipodi:nodetypes="ccccccccsszszzzzzc" />
        <path
           sodipodi:type="star"
           style="fill:#ffff01;fill-opacity:1;stroke:#000000;stroke-width:5.42803907;stroke-miterlimit:4;stroke-opacity:1;stroke-dasharray:none"
           id="path3225"
           sodipodi:sides="5"
           sodipodi:cx="389"
           sodipodi:cy="797"
           sodipodi:r1="57"
           sodipodi:r2="28.5"
           sodipodi:arg1="-1.5707963"
           sodipodi:arg2="-0.9424778"
           inkscape:flatsided="false"
           inkscape:rounded="0"
           inkscape:randomized="0"
           d="m 389,740 16.75188,33.94302 37.45834,5.44301 -27.10511,26.42095 6.39865,37.30699 L 389,825.5 l -33.50376,17.61397 6.39865,-37.30699 -27.10511,-26.42095 37.45834,-5.44301 z"
           transform="matrix(0.1842286,0,0,0.1842286,335.96008,712.15681)"
           inkscape:transform-center-y="-1.0027554" />
        <path
           style="fill:none;stroke:#ebea29;stroke-width:2;stroke-linecap:butt;stroke-linejoin:miter;stroke-miterlimit:4;stroke-opacity:1;stroke-dasharray:none"
           d="m 326.66189,652.21007 c 1.6875,1.125 4.8658,3.79533 5.8658,6.07658 1,2.28125 3.49448,2.51225 3.49448,2.51225 0,0 6.99692,3.15073 8.15317,3.80698 1.15625,0.65625 8.76469,5.49876 8.54594,8.90501 -0.21875,3.40625 -2.96493,9.58684 -4.01408,12.57964 -1.37129,3.91172 -0.91409,14.05172 -0.64277,18.52938 -1.85368,3.22766 -18.76774,30.76343 -19.92399,32.98218 -1.15625,2.21875 1.37566,22.31683 1.34987,24.60597 -0.0258,2.28914 -1.65441,12.28491 -2.12316,15.65991 -0.46875,3.375 -6.95219,13.75549 -7.48344,15.22424 -0.53125,1.46875 -3.78553,9.72792 -3.91053,12.41542 -0.125,2.6875 0.90441,10.00917 0.18566,12.41542 -0.71875,2.40625 -14.98221,12.64398 -15.88846,13.83148 -0.90625,1.1875 -3.01409,5.57535 -2.82659,9.8566 0.1875,4.28125 5.74869,6.1598 7.13173,7.00857 1.38304,0.84877 8.45219,7.61824 9.23344,9.71199 0.78125,2.09375 0.38665,9.44055 0.1679,10.81555 -0.21875,1.375 -4.5435,14.19115 -4.32475,16.0349 0.21875,1.84375 12.50733,16.96873 12.72608,18.96873 0.21875,2 -0.53921,10.28674 -1.66421,14.34924"
           id="path3219"
           inkscape:connector-curvature="0"
           transform="translate(0,62.362)"
           sodipodi:nodetypes="czczzsczzzzzzzzzzzzzc" />
        <path
           style="fill:none;stroke:#ffb30b;stroke-width:3;stroke-linecap:butt;stroke-linejoin:miter;stroke-miterlimit:4;stroke-opacity:1;stroke-dasharray:none"
           d="m 349.58318,918.76777 c 10.34144,-5.39169 30.27643,-13.45321 34.2981,-16.14905 4.02167,-2.69585 26.02773,-29.48093 28.06066,-30.40901 2.03293,-0.92808 19.08319,-7.51647 21.55806,-8.70971 2.47487,-1.19324 47.9948,-47.55285 51.26517,-49.67417 3.27036,-2.12133 31.88213,-18.16637 35.55025,-20.64125 3.66811,-2.47487 13.29809,-11.49134 14.71231,-14.36396 1.41421,-2.87262 7.19064,-30.59705 7.85355,-32.14384 0.66291,-1.5468 14.47227,-32.76517 14.47227,-32.76517"
           id="path3213"
           inkscape:connector-curvature="0"
           transform="translate(0,62.362)"
           sodipodi:nodetypes="czzzzzzzc" />
        <path
           style="fill:none;stroke:#ffb30b;stroke-width:3;stroke-linecap:butt;stroke-linejoin:miter;stroke-miterlimit:4;stroke-opacity:1;stroke-dasharray:none"
           d="m 284.71403,703.47715 c 0,0 7.34864,-7.24693 8.87989,-7.90318 1.53125,-0.65625 37.90252,-21.68808 39.12127,-24.12558 1.21875,-2.4375 3.47119,-10.41726 3.47119,-10.41726 0,0 2.62745,-8.38417 3.8462,-10.41542 1.21875,-2.03125 6.84251,-6.20343 6.84251,-6.20343"
           id="path3217"
           inkscape:connector-curvature="0"
           transform="translate(0,62.362)"
           sodipodi:nodetypes="czzczc" />
      </g>
      <text
         sodipodi:linespacing="140%"
         id="text4004"
         y="751.12866"
         x="299.87332"
         style="font-size:13.33333302px;font-style:normal;font-variant:normal;font-weight:normal;font-stretch:normal;text-align:start;line-height:139.99999762%;letter-spacing:0px;word-spacing:0px;writing-mode:lr-tb;text-anchor:start;fill:#000000;fill-opacity:1;fill-rule:nonzero;stroke:none;font-family:Linux Libertine O;-inkscape-font-specification:Linux Libertine O"
         xml:space="preserve"><tspan
           y="751.12866"
           x="299.87332"
           id="tspan4006"
           sodipodi:role="line">123</tspan></text>
      <text
         sodipodi:linespacing="140%"
         id="text4008"
         y="795.20868"
         x="321.87332"
         style="font-size:13.33333302px;font-style:normal;font-variant:normal;font-weight:normal;font-stretch:normal;text-align:start;line-height:139.99999762%;letter-spacing:0px;word-spacing:0px;writing-mode:lr-tb;text-anchor:start;fill:#000000;fill-opacity:1;stroke:none;font-family:Linux Libertine O;-inkscape-font-specification:Linux Libertine O"
         xml:space="preserve"><tspan
           y="795.20868"
           x="321.87332"
           id="tspan4010"
           sodipodi:role="line">178</tspan></text>
      <text
         sodipodi:linespacing="140%"
         id="text4012"
         y="829.62866"
         x="368.72665"
         style="font-size:13.33333302px;font-style:normal;font-variant:normal;font-weight:normal;font-stretch:normal;text-align:start;line-height:139.99999762%;letter-spacing:0px;word-spacing:0px;writing-mode:lr-tb;text-anchor:start;fill:#000000;fill-opacity:1;stroke:none;font-family:Linux Libertine O;-inkscape-font-specification:Linux Libertine O"
         xml:space="preserve"><tspan
           y="829.62866"
           x="368.72665"
           id="tspan4014"
           sodipodi:role="line">88</tspan></text>
      <text
         sodipodi:linespacing="140%"
         id="text4016"
         y="857.15533"
         x="516.22668"
         style="font-size:13.33333302px;font-style:normal;font-variant:normal;font-weight:normal;font-stretch:normal;text-align:start;line-height:139.99999762%;letter-spacing:0px;word-spacing:0px;writing-mode:lr-tb;text-anchor:start;fill:#000000;fill-opacity:1;stroke:none;font-family:Linux Libertine O;-inkscape-font-specification:Linux Libertine O"
         xml:space="preserve"><tspan
           y="857.15533"
           x="516.22668"
           id="tspan4018"
           sodipodi:role="line">85</tspan></text>
      <text
         sodipodi:linespacing="140%"
         id="text4020"
         y="889.62866"
         x="427.72665"
         style="font-size:13.33333302px;font-style:normal;font-variant:normal;font-weight:normal;font-stretch:normal;text-align:start;line-height:139.99999762%;letter-spacing:0px;word-spacing:0px;writing-mode:lr-tb;text-anchor:start;fill:#000000;fill-opacity:1;stroke:none;font-family:Linux Libertine O;-inkscape-font-specification:Linux Libertine O"
         xml:space="preserve"><tspan
           y="889.62866"
           x="427.72665"
           id="tspan4022"
           sodipodi:role="line">81</tspan></text>
      <text
         sodipodi:linespacing="140%"
         id="text4024"
         y="776.12866"
         x="487.72665"
         style="font-size:13.33333302px;font-style:normal;font-variant:normal;font-weight:normal;font-stretch:normal;text-align:start;line-height:139.99999762%;letter-spacing:0px;word-spacing:0px;writing-mode:lr-tb;text-anchor:start;fill:#000000;fill-opacity:1;stroke:none;font-family:Linux Libertine O;-inkscape-font-specification:Linux Libertine O"
         xml:space="preserve"><tspan
           y="776.12866"
           x="487.72665"
           id="tspan4026"
           sodipodi:role="line">81</tspan></text>
    </g>
    <g
       transform="matrix(2.1674226,0,0,2.1674226,-666.93044,-683.5764)"
       id="layer1-8"
       inkscape:label="Layer 1"
       style="opacity:0.2">
      <path
         sodipodi:nodetypes="scccccscccccscccccsccccscccccsccccs"
         inkscape:connector-curvature="0"
         id="path3066-3"
         d="m 378.79217,370.84593 c -22.44545,23.55528 -8.61786,45.38741 -8.61786,45.38741 l 46.62485,64.4793 38.97926,37.52086 c -21.50201,25.72704 -44.15432,54.64613 -65.29689,84.07941 l -44.61402,-29.89736 c 0,0 -8.11496,-5.11336 -14.341,0.95018 -6.22604,6.06353 -1.5689,13.54551 -1.5689,13.54551 l 37.56505,48.5252 c -1.51911,2.27607 -4.50781,6.80591 -4.50781,6.80591 0,0 4.50775,-3.0108 6.78381,-4.52991 l 48.5252,37.56505 c 0,0 7.48198,4.65715 13.54552,-1.56889 6.06353,-6.22604 0.95017,-14.34101 0.95017,-14.34101 l -29.89736,-44.61402 c 29.43329,-21.14257 58.35237,-43.79488 84.07942,-65.29689 l 37.52085,38.97926 64.4793,46.62485 c 0,0 21.83214,13.82759 45.38742,-8.61786 11.65036,-11.10144 1.81196,-26.82586 1.81196,-26.82586 L 580.31761,530.74045 546.61955,496.2027 c 2.75468,-2.68411 5.35567,-5.27852 7.82237,-7.77818 22.45064,-22.27386 26.78664,-24.43753 21.74353,-30.75914 -1.37454,-1.72301 -7.88157,-8.41403 -11.20322,-11.82194 l 5.10443,-5.23701 c 1.60937,-1.76563 -1.12696,-4.30893 -1.12696,-4.30893 0,0 -2.56539,-2.75843 -4.33102,-1.14905 l -5.23701,5.10443 c -3.40792,-3.32165 -10.09894,-9.82868 -11.82195,-11.20323 -6.32161,-5.0431 -8.48528,-0.7071 -30.75914,21.74354 -2.49965,2.4667 -5.09406,5.06768 -7.77818,7.82236 L 474.49466,424.9175 405.61804,369.03396 c 0,0 -15.72443,-9.8384 -26.82587,1.81197 z"
         style="fill:#224455;fill-opacity:1;stroke:none" />
    </g>
    <text
       xml:space="preserve"
       style="font-size:61.98810959px;font-style:normal;font-variant:normal;font-weight:normal;font-stretch:normal;text-align:center;line-height:139.99999762%;letter-spacing:0px;word-spacing:0px;writing-mode:lr-tb;text-anchor:middle;fill:#000000;fill-opacity:1;stroke:none;font-family:Linux Libertine O;-inkscape-font-specification:Linux Libertine O"
       id="text2985"
       sodipodi:linespacing="140%"
       transform="translate(1960.9493,480.19555)"><textPath
         xlink:href="#path4050"
         startOffset="50%"
         id="textPath4052"><tspan
   id="tspan2987">Black Sheep RC Club</tspan></textPath></text>
    <text
       xml:space="preserve"
       style="font-size:86.67371368px;font-style:normal;font-variant:normal;font-weight:normal;font-stretch:normal;text-align:start;line-height:139.99999762%;letter-spacing:0px;word-spacing:0px;writing-mode:lr-tb;text-anchor:start;fill:#000000;fill-opacity:1;stroke:none;font-family:Linux Libertine O;-inkscape-font-specification:Linux Libertine O"
       x="131.4496"
       y="275.25397"
       id="text2997"
       sodipodi:linespacing="140%"><tspan
         sodipodi:role="line"
         id="tspan2999"
         x="131.4496"
         y="275.25397">Electric Fly-In</tspan></text>
    <text
       xml:space="preserve"
       style="font-size:70.02384186px;font-style:normal;font-variant:normal;font-weight:normal;font-stretch:normal;text-align:center;line-height:139.99999762%;letter-spacing:0px;word-spacing:0px;writing-mode:lr-tb;text-anchor:middle;fill:#000000;fill-opacity:1;stroke:none;font-family:Linux Libertine O;-inkscape-font-specification:Linux Libertine O"
       x="383.78998"
       y="376.35092"
       id="text3001"
       sodipodi:linespacing="140%"><tspan
         sodipodi:role="line"
         id="tspan3003"
         x="383.78998"
         y="376.35092">Saturday</tspan><tspan
         sodipodi:role="line"
         x="383.78998"
         y="474.38431"
         id="tspan4245">May 2<tspan
   style="font-size:65.00091553%;baseline-shift:super"
   id="tspan4248">nd</tspan>, 2015</tspan></text>
    <path
       sodipodi:type="arc"
       style="fill:none;stroke:#000000;stroke-opacity:1"
       id="path4050"
       sodipodi:cx="612.35449"
       sodipodi:cy="743.92682"
       sodipodi:rx="330.92596"
       sodipodi:ry="330.92596"
       d="m 943.28046,743.92682 c 0,182.76536 -148.1606,330.92598 -330.92597,330.92598 -182.76536,0 -330.92596,-148.16062 -330.92596,-330.92598 0,-182.76536 148.1606,-330.92597 330.92596,-330.92597 182.76537,0 330.92597,148.16061 330.92597,330.92597 z"
       transform="matrix(0,4.0170941,-4.0170941,0,1410.1617,-1451.3643)" />
    <g
       id="QRcode"
       transform="matrix(3.4090909,0,0,3.4090909,618.75,906.112)">
      <rect
         id="rect7703"
         height="33"
         width="33"
         y="0"
         x="0"
         style="fill:#ffffff" />
      <g
         id="Pattern">
        <rect
           id="rect7706"
           height="1"
           width="7"
           y="4"
           x="4"
           style="fill:#000000" />
        <rect
           id="rect7708"
           height="1"
           width="1"
           y="4"
           x="13"
           style="fill:#000000" />
        <rect
           id="rect7710"
           height="1"
           width="1"
           y="4"
           x="18"
           style="fill:#000000" />
        <rect
           id="rect7712"
           height="1"
           width="1"
           y="4"
           x="20"
           style="fill:#000000" />
        <rect
           id="rect7714"
           height="1"
           width="7"
           y="4"
           x="22"
           style="fill:#000000" />
        <rect
           id="rect7716"
           height="1"
           width="1"
           y="5"
           x="4"
           style="fill:#000000" />
        <rect
           id="rect7718"
           height="1"
           width="1"
           y="5"
           x="10"
           style="fill:#000000" />
        <rect
           id="rect7720"
           height="1"
           width="2"
           y="5"
           x="12"
           style="fill:#000000" />
        <rect
           id="rect7722"
           height="1"
           width="3"
           y="5"
           x="15"
           style="fill:#000000" />
        <rect
           id="rect7724"
           height="1"
           width="1"
           y="5"
           x="19"
           style="fill:#000000" />
        <rect
           id="rect7726"
           height="1"
           width="1"
           y="5"
           x="22"
           style="fill:#000000" />
        <rect
           id="rect7728"
           height="1"
           width="1"
           y="5"
           x="28"
           style="fill:#000000" />
        <rect
           id="rect7730"
           height="1"
           width="1"
           y="6"
           x="4"
           style="fill:#000000" />
        <rect
           id="rect7732"
           height="1"
           width="3"
           y="6"
           x="6"
           style="fill:#000000" />
        <rect
           id="rect7734"
           height="1"
           width="1"
           y="6"
           x="10"
           style="fill:#000000" />
        <rect
           id="rect7736"
           height="1"
           width="3"
           y="6"
           x="13"
           style="fill:#000000" />
        <rect
           id="rect7738"
           height="1"
           width="2"
           y="6"
           x="18"
           style="fill:#000000" />
        <rect
           id="rect7740"
           height="1"
           width="1"
           y="6"
           x="22"
           style="fill:#000000" />
        <rect
           id="rect7742"
           height="1"
           width="3"
           y="6"
           x="24"
           style="fill:#000000" />
        <rect
           id="rect7744"
           height="1"
           width="1"
           y="6"
           x="28"
           style="fill:#000000" />
        <rect
           id="rect7746"
           height="1"
           width="1"
           y="7"
           x="4"
           style="fill:#000000" />
        <rect
           id="rect7748"
           height="1"
           width="3"
           y="7"
           x="6"
           style="fill:#000000" />
        <rect
           id="rect7750"
           height="1"
           width="1"
           y="7"
           x="10"
           style="fill:#000000" />
        <rect
           id="rect7752"
           height="1"
           width="2"
           y="7"
           x="12"
           style="fill:#000000" />
        <rect
           id="rect7754"
           height="1"
           width="1"
           y="7"
           x="15"
           style="fill:#000000" />
        <rect
           id="rect7756"
           height="1"
           width="1"
           y="7"
           x="17"
           style="fill:#000000" />
        <rect
           id="rect7758"
           height="1"
           width="2"
           y="7"
           x="19"
           style="fill:#000000" />
        <rect
           id="rect7760"
           height="1"
           width="1"
           y="7"
           x="22"
           style="fill:#000000" />
        <rect
           id="rect7762"
           height="1"
           width="3"
           y="7"
           x="24"
           style="fill:#000000" />
        <rect
           id="rect7764"
           height="1"
           width="1"
           y="7"
           x="28"
           style="fill:#000000" />
        <rect
           id="rect7766"
           height="1"
           width="1"
           y="8"
           x="4"
           style="fill:#000000" />
        <rect
           id="rect7768"
           height="1"
           width="3"
           y="8"
           x="6"
           style="fill:#000000" />
        <rect
           id="rect7770"
           height="1"
           width="1"
           y="8"
           x="10"
           style="fill:#000000" />
        <rect
           id="rect7772"
           height="1"
           width="1"
           y="8"
           x="14"
           style="fill:#000000" />
        <rect
           id="rect7774"
           height="1"
           width="2"
           y="8"
           x="16"
           style="fill:#000000" />
        <rect
           id="rect7776"
           height="1"
           width="1"
           y="8"
           x="20"
           style="fill:#000000" />
        <rect
           id="rect7778"
           height="1"
           width="1"
           y="8"
           x="22"
           style="fill:#000000" />
        <rect
           id="rect7780"
           height="1"
           width="3"
           y="8"
           x="24"
           style="fill:#000000" />
        <rect
           id="rect7782"
           height="1"
           width="1"
           y="8"
           x="28"
           style="fill:#000000" />
        <rect
           id="rect7784"
           height="1"
           width="1"
           y="9"
           x="4"
           style="fill:#000000" />
        <rect
           id="rect7786"
           height="1"
           width="1"
           y="9"
           x="10"
           style="fill:#000000" />
        <rect
           id="rect7788"
           height="1"
           width="1"
           y="9"
           x="12"
           style="fill:#000000" />
        <rect
           id="rect7790"
           height="1"
           width="1"
           y="9"
           x="14"
           style="fill:#000000" />
        <rect
           id="rect7792"
           height="1"
           width="4"
           y="9"
           x="17"
           style="fill:#000000" />
        <rect
           id="rect7794"
           height="1"
           width="1"
           y="9"
           x="22"
           style="fill:#000000" />
        <rect
           id="rect7796"
           height="1"
           width="1"
           y="9"
           x="28"
           style="fill:#000000" />
        <rect
           id="rect7798"
           height="1"
           width="7"
           y="10"
           x="4"
           style="fill:#000000" />
        <rect
           id="rect7800"
           height="1"
           width="1"
           y="10"
           x="12"
           style="fill:#000000" />
        <rect
           id="rect7802"
           height="1"
           width="1"
           y="10"
           x="14"
           style="fill:#000000" />
        <rect
           id="rect7804"
           height="1"
           width="1"
           y="10"
           x="16"
           style="fill:#000000" />
        <rect
           id="rect7806"
           height="1"
           width="1"
           y="10"
           x="18"
           style="fill:#000000" />
        <rect
           id="rect7808"
           height="1"
           width="1"
           y="10"
           x="20"
           style="fill:#000000" />
        <rect
           id="rect7810"
           height="1"
           width="7"
           y="10"
           x="22"
           style="fill:#000000" />
        <rect
           id="rect7812"
           height="1"
           width="1"
           y="11"
           x="16"
           style="fill:#000000" />
        <rect
           id="rect7814"
           height="1"
           width="2"
           y="11"
           x="18"
           style="fill:#000000" />
        <rect
           id="rect7816"
           height="1"
           width="5"
           y="12"
           x="4"
           style="fill:#000000" />
        <rect
           id="rect7818"
           height="1"
           width="5"
           y="12"
           x="10"
           style="fill:#000000" />
        <rect
           id="rect7820"
           height="1"
           width="1"
           y="12"
           x="16"
           style="fill:#000000" />
        <rect
           id="rect7822"
           height="1"
           width="2"
           y="12"
           x="18"
           style="fill:#000000" />
        <rect
           id="rect7824"
           height="1"
           width="1"
           y="12"
           x="21"
           style="fill:#000000" />
        <rect
           id="rect7826"
           height="1"
           width="1"
           y="12"
           x="23"
           style="fill:#000000" />
        <rect
           id="rect7828"
           height="1"
           width="1"
           y="12"
           x="25"
           style="fill:#000000" />
        <rect
           id="rect7830"
           height="1"
           width="1"
           y="12"
           x="27"
           style="fill:#000000" />
        <rect
           id="rect7832"
           height="1"
           width="1"
           y="13"
           x="4"
           style="fill:#000000" />
        <rect
           id="rect7834"
           height="1"
           width="1"
           y="13"
           x="6"
           style="fill:#000000" />
        <rect
           id="rect7836"
           height="1"
           width="1"
           y="13"
           x="8"
           style="fill:#000000" />
        <rect
           id="rect7838"
           height="1"
           width="1"
           y="13"
           x="11"
           style="fill:#000000" />
        <rect
           id="rect7840"
           height="1"
           width="1"
           y="13"
           x="13"
           style="fill:#000000" />
        <rect
           id="rect7842"
           height="1"
           width="1"
           y="13"
           x="17"
           style="fill:#000000" />
        <rect
           id="rect7844"
           height="1"
           width="1"
           y="13"
           x="20"
           style="fill:#000000" />
        <rect
           id="rect7846"
           height="1"
           width="1"
           y="13"
           x="23"
           style="fill:#000000" />
        <rect
           id="rect7848"
           height="1"
           width="1"
           y="13"
           x="27"
           style="fill:#000000" />
        <rect
           id="rect7850"
           height="1"
           width="1"
           y="14"
           x="4"
           style="fill:#000000" />
        <rect
           id="rect7852"
           height="1"
           width="4"
           y="14"
           x="10"
           style="fill:#000000" />
        <rect
           id="rect7854"
           height="1"
           width="3"
           y="14"
           x="15"
           style="fill:#000000" />
        <rect
           id="rect7856"
           height="1"
           width="3"
           y="14"
           x="19"
           style="fill:#000000" />
        <rect
           id="rect7858"
           height="1"
           width="3"
           y="14"
           x="23"
           style="fill:#000000" />
        <rect
           id="rect7860"
           height="1"
           width="2"
           y="14"
           x="27"
           style="fill:#000000" />
        <rect
           id="rect7862"
           height="1"
           width="1"
           y="15"
           x="6"
           style="fill:#000000" />
        <rect
           id="rect7864"
           height="1"
           width="1"
           y="15"
           x="9"
           style="fill:#000000" />
        <rect
           id="rect7866"
           height="1"
           width="1"
           y="15"
           x="11"
           style="fill:#000000" />
        <rect
           id="rect7868"
           height="1"
           width="3"
           y="15"
           x="13"
           style="fill:#000000" />
        <rect
           id="rect7870"
           height="1"
           width="3"
           y="15"
           x="19"
           style="fill:#000000" />
        <rect
           id="rect7872"
           height="1"
           width="2"
           y="15"
           x="23"
           style="fill:#000000" />
        <rect
           id="rect7874"
           height="1"
           width="1"
           y="15"
           x="28"
           style="fill:#000000" />
        <rect
           id="rect7876"
           height="1"
           width="2"
           y="16"
           x="4"
           style="fill:#000000" />
        <rect
           id="rect7878"
           height="1"
           width="2"
           y="16"
           x="7"
           style="fill:#000000" />
        <rect
           id="rect7880"
           height="1"
           width="4"
           y="16"
           x="10"
           style="fill:#000000" />
        <rect
           id="rect7882"
           height="1"
           width="1"
           y="16"
           x="15"
           style="fill:#000000" />
        <rect
           id="rect7884"
           height="1"
           width="2"
           y="16"
           x="17"
           style="fill:#000000" />
        <rect
           id="rect7886"
           height="1"
           width="1"
           y="16"
           x="22"
           style="fill:#000000" />
        <rect
           id="rect7888"
           height="1"
           width="1"
           y="16"
           x="24"
           style="fill:#000000" />
        <rect
           id="rect7890"
           height="1"
           width="3"
           y="16"
           x="26"
           style="fill:#000000" />
        <rect
           id="rect7892"
           height="1"
           width="3"
           y="17"
           x="4"
           style="fill:#000000" />
        <rect
           id="rect7894"
           height="1"
           width="1"
           y="17"
           x="8"
           style="fill:#000000" />
        <rect
           id="rect7896"
           height="1"
           width="1"
           y="17"
           x="14"
           style="fill:#000000" />
        <rect
           id="rect7898"
           height="1"
           width="2"
           y="17"
           x="16"
           style="fill:#000000" />
        <rect
           id="rect7900"
           height="1"
           width="1"
           y="17"
           x="20"
           style="fill:#000000" />
        <rect
           id="rect7902"
           height="1"
           width="1"
           y="17"
           x="23"
           style="fill:#000000" />
        <rect
           id="rect7904"
           height="1"
           width="1"
           y="17"
           x="25"
           style="fill:#000000" />
        <rect
           id="rect7906"
           height="1"
           width="1"
           y="17"
           x="27"
           style="fill:#000000" />
        <rect
           id="rect7908"
           height="1"
           width="1"
           y="18"
           x="4"
           style="fill:#000000" />
        <rect
           id="rect7910"
           height="1"
           width="1"
           y="18"
           x="6"
           style="fill:#000000" />
        <rect
           id="rect7912"
           height="1"
           width="1"
           y="18"
           x="10"
           style="fill:#000000" />
        <rect
           id="rect7914"
           height="1"
           width="2"
           y="18"
           x="13"
           style="fill:#000000" />
        <rect
           id="rect7916"
           height="1"
           width="1"
           y="18"
           x="17"
           style="fill:#000000" />
        <rect
           id="rect7918"
           height="1"
           width="3"
           y="18"
           x="19"
           style="fill:#000000" />
        <rect
           id="rect7920"
           height="1"
           width="3"
           y="18"
           x="23"
           style="fill:#000000" />
        <rect
           id="rect7922"
           height="1"
           width="2"
           y="18"
           x="27"
           style="fill:#000000" />
        <rect
           id="rect7924"
           height="1"
           width="1"
           y="19"
           x="4"
           style="fill:#000000" />
        <rect
           id="rect7926"
           height="1"
           width="1"
           y="19"
           x="6"
           style="fill:#000000" />
        <rect
           id="rect7928"
           height="1"
           width="1"
           y="19"
           x="9"
           style="fill:#000000" />
        <rect
           id="rect7930"
           height="1"
           width="1"
           y="19"
           x="13"
           style="fill:#000000" />
        <rect
           id="rect7932"
           height="1"
           width="1"
           y="19"
           x="16"
           style="fill:#000000" />
        <rect
           id="rect7934"
           height="1"
           width="1"
           y="19"
           x="20"
           style="fill:#000000" />
        <rect
           id="rect7936"
           height="1"
           width="1"
           y="19"
           x="23"
           style="fill:#000000" />
        <rect
           id="rect7938"
           height="1"
           width="1"
           y="19"
           x="25"
           style="fill:#000000" />
        <rect
           id="rect7940"
           height="1"
           width="1"
           y="19"
           x="28"
           style="fill:#000000" />
        <rect
           id="rect7942"
           height="1"
           width="1"
           y="20"
           x="4"
           style="fill:#000000" />
        <rect
           id="rect7944"
           height="1"
           width="5"
           y="20"
           x="7"
           style="fill:#000000" />
        <rect
           id="rect7946"
           height="1"
           width="1"
           y="20"
           x="13"
           style="fill:#000000" />
        <rect
           id="rect7948"
           height="1"
           width="2"
           y="20"
           x="16"
           style="fill:#000000" />
        <rect
           id="rect7950"
           height="1"
           width="5"
           y="20"
           x="20"
           style="fill:#000000" />
        <rect
           id="rect7952"
           height="1"
           width="1"
           y="20"
           x="26"
           style="fill:#000000" />
        <rect
           id="rect7954"
           height="1"
           width="3"
           y="21"
           x="12"
           style="fill:#000000" />
        <rect
           id="rect7956"
           height="1"
           width="3"
           y="21"
           x="18"
           style="fill:#000000" />
        <rect
           id="rect7958"
           height="1"
           width="3"
           y="21"
           x="24"
           style="fill:#000000" />
        <rect
           id="rect7960"
           height="1"
           width="7"
           y="22"
           x="4"
           style="fill:#000000" />
        <rect
           id="rect7962"
           height="1"
           width="1"
           y="22"
           x="12"
           style="fill:#000000" />
        <rect
           id="rect7964"
           height="1"
           width="2"
           y="22"
           x="15"
           style="fill:#000000" />
        <rect
           id="rect7966"
           height="1"
           width="1"
           y="22"
           x="18"
           style="fill:#000000" />
        <rect
           id="rect7968"
           height="1"
           width="1"
           y="22"
           x="20"
           style="fill:#000000" />
        <rect
           id="rect7970"
           height="1"
           width="1"
           y="22"
           x="22"
           style="fill:#000000" />
        <rect
           id="rect7972"
           height="1"
           width="5"
           y="22"
           x="24"
           style="fill:#000000" />
        <rect
           id="rect7974"
           height="1"
           width="1"
           y="23"
           x="4"
           style="fill:#000000" />
        <rect
           id="rect7976"
           height="1"
           width="1"
           y="23"
           x="10"
           style="fill:#000000" />
        <rect
           id="rect7978"
           height="1"
           width="1"
           y="23"
           x="13"
           style="fill:#000000" />
        <rect
           id="rect7980"
           height="1"
           width="1"
           y="23"
           x="15"
           style="fill:#000000" />
        <rect
           id="rect7982"
           height="1"
           width="3"
           y="23"
           x="18"
           style="fill:#000000" />
        <rect
           id="rect7984"
           height="1"
           width="2"
           y="23"
           x="24"
           style="fill:#000000" />
        <rect
           id="rect7986"
           height="1"
           width="1"
           y="23"
           x="28"
           style="fill:#000000" />
        <rect
           id="rect7988"
           height="1"
           width="1"
           y="24"
           x="4"
           style="fill:#000000" />
        <rect
           id="rect7990"
           height="1"
           width="3"
           y="24"
           x="6"
           style="fill:#000000" />
        <rect
           id="rect7992"
           height="1"
           width="1"
           y="24"
           x="10"
           style="fill:#000000" />
        <rect
           id="rect7994"
           height="1"
           width="1"
           y="24"
           x="12"
           style="fill:#000000" />
        <rect
           id="rect7996"
           height="1"
           width="2"
           y="24"
           x="15"
           style="fill:#000000" />
        <rect
           id="rect7998"
           height="1"
           width="9"
           y="24"
           x="18"
           style="fill:#000000" />
        <rect
           id="rect8000"
           height="1"
           width="1"
           y="25"
           x="4"
           style="fill:#000000" />
        <rect
           id="rect8002"
           height="1"
           width="3"
           y="25"
           x="6"
           style="fill:#000000" />
        <rect
           id="rect8004"
           height="1"
           width="1"
           y="25"
           x="10"
           style="fill:#000000" />
        <rect
           id="rect8006"
           height="1"
           width="2"
           y="25"
           x="12"
           style="fill:#000000" />
        <rect
           id="rect8008"
           height="1"
           width="1"
           y="25"
           x="16"
           style="fill:#000000" />
        <rect
           id="rect8010"
           height="1"
           width="2"
           y="25"
           x="18"
           style="fill:#000000" />
        <rect
           id="rect8012"
           height="1"
           width="2"
           y="25"
           x="21"
           style="fill:#000000" />
        <rect
           id="rect8014"
           height="1"
           width="1"
           y="25"
           x="24"
           style="fill:#000000" />
        <rect
           id="rect8016"
           height="1"
           width="3"
           y="25"
           x="26"
           style="fill:#000000" />
        <rect
           id="rect8018"
           height="1"
           width="1"
           y="26"
           x="4"
           style="fill:#000000" />
        <rect
           id="rect8020"
           height="1"
           width="3"
           y="26"
           x="6"
           style="fill:#000000" />
        <rect
           id="rect8022"
           height="1"
           width="1"
           y="26"
           x="10"
           style="fill:#000000" />
        <rect
           id="rect8024"
           height="1"
           width="2"
           y="26"
           x="12"
           style="fill:#000000" />
        <rect
           id="rect8026"
           height="1"
           width="1"
           y="26"
           x="17"
           style="fill:#000000" />
        <rect
           id="rect8028"
           height="1"
           width="1"
           y="26"
           x="20"
           style="fill:#000000" />
        <rect
           id="rect8030"
           height="1"
           width="1"
           y="26"
           x="23"
           style="fill:#000000" />
        <rect
           id="rect8032"
           height="1"
           width="1"
           y="26"
           x="26"
           style="fill:#000000" />
        <rect
           id="rect8034"
           height="1"
           width="1"
           y="26"
           x="28"
           style="fill:#000000" />
        <rect
           id="rect8036"
           height="1"
           width="1"
           y="27"
           x="4"
           style="fill:#000000" />
        <rect
           id="rect8038"
           height="1"
           width="1"
           y="27"
           x="10"
           style="fill:#000000" />
        <rect
           id="rect8040"
           height="1"
           width="1"
           y="27"
           x="12"
           style="fill:#000000" />
        <rect
           id="rect8042"
           height="1"
           width="1"
           y="27"
           x="14"
           style="fill:#000000" />
        <rect
           id="rect8044"
           height="1"
           width="1"
           y="27"
           x="16"
           style="fill:#000000" />
        <rect
           id="rect8046"
           height="1"
           width="8"
           y="27"
           x="18"
           style="fill:#000000" />
        <rect
           id="rect8048"
           height="1"
           width="1"
           y="27"
           x="28"
           style="fill:#000000" />
        <rect
           id="rect8050"
           height="1"
           width="7"
           y="28"
           x="4"
           style="fill:#000000" />
        <rect
           id="rect8052"
           height="1"
           width="7"
           y="28"
           x="12"
           style="fill:#000000" />
        <rect
           id="rect8054"
           height="1"
           width="1"
           y="28"
           x="21"
           style="fill:#000000" />
        <rect
           id="rect8056"
           height="1"
           width="6"
           y="28"
           x="23"
           style="fill:#000000" />
      </g>
    </g>
    <flowRoot
       xml:space="preserve"
       id="flowRoot3727"
       style="fill:black;stroke:none;stroke-opacity:1;stroke-width:1px;stroke-linejoin:miter;stroke-linecap:butt;fill-opacity:1;font-family:Linux Libertine O;font-style:normal;font-weight:normal;font-size:40px;line-height:139.99999761999995940%;letter-spacing:0px;word-spacing:0px;-inkscape-font-specification:Linux Libertine O;font-stretch:normal;font-variant:normal;text-anchor:start;text-align:start;writing-mode:lr"><flowRegion
         id="flowRegion3729"><rect
           id="rect3731"
           width="38.16589"
           height="40.478973"
           x="43.948597"
           y="468.39954" /></flowRegion><flowPara
         id="flowPara3733"></flowPara></flowRoot>    <text
       xml:space="preserve"
       style="font-size:24px;font-style:normal;font-variant:normal;font-weight:normal;font-stretch:normal;text-align:start;line-height:139.99999762%;letter-spacing:0px;word-spacing:0px;writing-mode:lr-tb;text-anchor:start;fill:#000000;fill-opacity:1;stroke:none;font-family:Linux Libertine O;-inkscape-font-specification:Linux Libertine O"
       x="304.81744"
       y="1007.074"
       id="text3735"
       sodipodi:linespacing="140%"><tspan
         sodipodi:role="line"
         id="tspan3737"
         x="304.81744"
         y="1007.074">www.bsrcc.com</tspan></text>
    <text
       xml:space="preserve"
       style="font-size:22px;font-style:normal;font-variant:normal;font-weight:normal;font-stretch:normal;text-align:start;line-height:139.99999762%;letter-spacing:0px;word-spacing:0px;writing-mode:lr-tb;text-anchor:start;fill:#000000;fill-opacity:1;stroke:none;font-family:Linux Libertine O;-inkscape-font-specification:Linux Libertine O"
       x="121.76311"
       y="642.92206"
       id="text3739"
       sodipodi:linespacing="140%"><tspan
         sodipodi:role="line"
         id="tspan4614"
         x="121.76311"
         y="642.92206">300 foot paved, and 600 foot grass runways.</tspan><tspan
         sodipodi:role="line"
         id="tspan4616"
         x="121.76311"
         y="673.72205">Electrical outlets in the pits.</tspan><tspan
         sodipodi:role="line"
         id="tspan4618"
         x="121.76311"
         y="704.52203">Lunch includes hamburgers, chips, soda, and brownies.</tspan><tspan
         sodipodi:role="line"
         id="tspan4620"
         x="121.76311"
         y="735.32208">Pilot fee: $15 (includes lunch)</tspan><tspan
         sodipodi:role="line"
         id="tspan4622"
         x="121.76311"
         y="766.12207">No charge for spectators.</tspan></text>
    <image
       y="1167.2192"
       x="327.8793"
       id="image4605"
       xlink:href="file:///home/tortxof/www/blacksheeprcclub-www/photos/large/2012-06-09.12-13-35.2682b5c2.jpg"
       height="768"
       width="1024"
       clip-path="url(#clipPath4610)"
       transform="matrix(0.37911752,0,0,0.37911752,-99.693569,260.88457)" />
    <text
       xml:space="preserve"
       style="font-size:28px;font-style:normal;font-variant:normal;font-weight:normal;font-stretch:normal;text-align:start;line-height:139.99999762%;letter-spacing:0px;word-spacing:0px;writing-mode:lr-tb;text-anchor:start;fill:#000000;fill-opacity:1;stroke:none;font-family:Linux Libertine O;-inkscape-font-specification:Linux Libertine O"
       x="412.76257"
       y="527.09393"
       id="text4624"
       sodipodi:linespacing="140%"><tspan
         sodipodi:role="line"
         id="tspan4626"
         x="412.76257"
         y="527.09393">Location:</tspan><tspan
         sodipodi:role="line"
         x="412.76257"
         y="566.29395"
         id="tspan4628">802 Lockaby Rd</tspan><tspan
         sodipodi:role="line"
         x="412.76257"
         y="605.49396"
         id="tspan4632">Pendleton, SC 29670</tspan></text>
    <text
       xml:space="preserve"
       style="font-size:28px;font-style:normal;font-variant:normal;font-weight:normal;font-stretch:normal;text-align:start;line-height:139.99999762%;letter-spacing:0px;word-spacing:0px;writing-mode:lr-tb;text-anchor:start;fill:#000000;fill-opacity:1;stroke:none;font-family:Linux Libertine O;-inkscape-font-specification:Linux Libertine O"
       x="121.31399"
       y="527.26196"
       id="text4636"
       sodipodi:linespacing="140%"><tspan
         sodipodi:role="line"
         id="tspan4638"
         x="121.31399"
         y="527.26196">Time:</tspan><tspan
         sodipodi:role="line"
         x="121.31399"
         y="566.46198"
         id="tspan4640">9AM to 5PM</tspan></text>
    <text
       xml:space="preserve"
       style="font-size:12px;font-style:normal;font-variant:normal;font-weight:normal;font-stretch:normal;text-align:start;line-height:139.99999762%;letter-spacing:0px;word-spacing:0px;writing-mode:lr-tb;text-anchor:start;fill:#000000;fill-opacity:1;stroke:none;font-family:Linux Libertine O;-inkscape-font-specification:Linux Libertine O"
       x="44.916"
       y="1004.554"
       id="text4642"
       sodipodi:linespacing="140%"><tspan
         sodipodi:role="line"
         id="tspan4644"
         x="44.916"
         y="1004.554">AMA membership required to fly.</tspan></text>
  </g>
</svg>
