<?xml version="1.0" encoding="UTF-8" standalone="no"?>
<svg
   xmlns:dc="http://purl.org/dc/elements/1.1/"
   xmlns:cc="http://creativecommons.org/ns#"
   xmlns:rdf="http://www.w3.org/1999/02/22-rdf-syntax-ns#"
   xmlns:svg="http://www.w3.org/2000/svg"
   xmlns="http://www.w3.org/2000/svg"
   xmlns:xlink="http://www.w3.org/1999/xlink"
   version="1.1"
   id="svg2"
   height="990"
   width="765">
  <defs
     id="defs4">
    <clipPath
       id="clipPath3209"
       clipPathUnits="userSpaceOnUse">
      <path
         d="m 283.65213,311.46286 670.45313,0 0,670.45313 -670.45313,0 z"
         style="opacity:0.5;fill:#000000;fill-opacity:1;stroke:#000000;stroke-width:6.21596479;stroke-miterlimit:4;stroke-opacity:1"
         id="path3211" />
    </clipPath>
    <clipPath
       id="clipPath4610"
       clipPathUnits="userSpaceOnUse">
      <rect
         y="1401.6378"
         x="381.65887"
         height="467.24292"
         width="919.45093"
         id="rect4612"
         style="opacity:0.2;fill-opacity:1;fill-rule:nonzero" />
    </clipPath>
  </defs>
  <metadata
     id="metadata7">
    <rdf:RDF>
      <cc:Work
         rdf:about="">
        <dc:format>image/svg+xml</dc:format>
        <dc:type
           rdf:resource="http://purl.org/dc/dcmitype/StillImage" />
        <dc:title></dc:title>
      </cc:Work>
    </rdf:RDF>
  </metadata>
  <g
     transform="translate(0,-62.362)"
     id="layer1">
    <g
       transform="translate(142.52335,19.233338)"
       id="g4028">
      <g
         id="g3995">
        <path
           transform="translate(0,62.362)"
           id="path3215"
           d="m 411.26654,893.40762 c 0.3125,-3.21875 0.86855,-8.49079 2.03737,-10.5343 1.16882,-2.04351 6.98838,-10.86294 8.47364,-14.45095 1.48526,-3.58801 8.81434,-18.95908 8.74509,-24.12926 -0.0693,-5.17018 -2.10493,-6.65229 -2.23284,-8.54594 -0.12791,-1.89365 9.74143,-19.00447 11.19851,-20.7034 1.45708,-1.69893 18.16194,-9.06946 19.59004,-11.00305 1.4281,-1.93359 7.1189,-13.01063 9.48529,-14.08944 2.36639,-1.07881 6.43366,-3.28938 8.28613,-4.356 1.85247,-1.06662 9.0452,-8.2954 11.03062,-9.17278 1.98542,-0.87738 14.69262,1.45777 15.68319,1.22672 0.99057,-0.23105 10.75497,-6.98511 14.86186,-9.26531 4.10689,-2.2802 14.40004,-7.39905 16.29189,-8.67217 1.89185,-1.27312 1.02941,-2.04533 1.43566,-3.92033"
           style="fill:none;stroke:#cccccc;stroke-width:1px;stroke-linecap:butt;stroke-linejoin:miter;stroke-opacity:1" />
        <path
           transform="translate(0,62.362)"
           id="path3221"
           d="m 284.61048,764.78649 c 0,0 10.58056,-3.03698 14.84924,-3.53553 4.26868,-0.49855 21.964,1.60526 30.05204,1.06066 8.08804,-0.5446 7.9596,-6.5627 13.51714,-6.59252 5.55754,-0.0298 9.71564,7.9373 24.15254,8.54962 5.01284,0.21261 24.22248,-0.88123 28.4448,-2.7071 4.22232,-1.82587 10.06786,-9.34244 14.84925,-10.21016 4.78139,-0.86772 9.02268,2.16823 12.72792,2.12132 3.70524,-0.0469 8.4647,-5.61754 12.37437,-7.07107 3.90967,-1.45353 14.11348,-2.71234 19.09188,-2.82842 5.2284,1.25892 9.95219,2.50612 9.95219,2.50612"
           style="fill:none;stroke:#cccccc;stroke-width:1px;stroke-linecap:butt;stroke-linejoin:miter;stroke-opacity:1" />
        <path
           transform="translate(0,62.362)"
           id="path3223"
           d="m 521.8448,819.94082 -11.66726,-4.24264 -5.3033,-4.5962 -9.54594,-4.24264 -9.89949,-8.83883 -8.83884,-12.72792 -5.65685,-20.15255 -0.70711,-6.36396 c 0,0 -5.94713,-6.6051 -5.44791,-12.62253 0.50351,-6.06906 9.60341,-6.22559 17.06003,-18.27081 2.45154,-3.96015 1.94957,-5.81494 4.71568,-9.27878 2.76611,-3.46384 12.14287,-16.24269 15.30083,-16.86149 2.35368,-0.4612 7.3142,0.26206 9.71567,-0.41973 2.40147,-0.68179 4.71382,-2.65647 8.26653,-2.43198 3.55271,0.22449 14.03639,4.71883 15.72424,3.68014 1.68785,-1.03869 4.02697,-4.88967 4.606,-7.20587 0.57903,-2.3162 0.35264,-5.88751 1.50796,-7.34068 1.15532,-1.45317 6.62009,-3.38725 8.55759,-5.856"
           style="fill:none;stroke:#cccccc;stroke-width:1px;stroke-linecap:butt;stroke-linejoin:miter;stroke-opacity:1" />
        <path
           transform="matrix(0.1842286,0,0,0.1842286,335.96008,712.15681)"
           d="m 389,740 16.75188,33.94302 37.45834,5.44301 -27.10511,26.42095 6.39865,37.30699 L 389,825.5 l -33.50376,17.61397 6.39865,-37.30699 -27.10511,-26.42095 37.45834,-5.44301 z"
           id="path3225"
           style="fill:#ffff01;fill-opacity:1;stroke:#000000;stroke-width:5.42803907;stroke-miterlimit:4;stroke-opacity:1;stroke-dasharray:none" />
        <path
           transform="translate(0,62.362)"
           id="path3219"
           d="m 326.66189,652.21007 c 1.6875,1.125 4.8658,3.79533 5.8658,6.07658 1,2.28125 3.49448,2.51225 3.49448,2.51225 0,0 6.99692,3.15073 8.15317,3.80698 1.15625,0.65625 8.76469,5.49876 8.54594,8.90501 -0.21875,3.40625 -2.96493,9.58684 -4.01408,12.57964 -1.37129,3.91172 -0.91409,14.05172 -0.64277,18.52938 -1.85368,3.22766 -18.76774,30.76343 -19.92399,32.98218 -1.15625,2.21875 1.37566,22.31683 1.34987,24.60597 -0.0258,2.28914 -1.65441,12.28491 -2.12316,15.65991 -0.46875,3.375 -6.95219,13.75549 -7.48344,15.22424 -0.53125,1.46875 -3.78553,9.72792 -3.91053,12.41542 -0.125,2.6875 0.90441,10.00917 0.18566,12.41542 -0.71875,2.40625 -14.98221,12.64398 -15.88846,13.83148 -0.90625,1.1875 -3.01409,5.57535 -2.82659,9.8566 0.1875,4.28125 5.74869,6.1598 7.13173,7.00857 1.38304,0.84877 8.45219,7.61824 9.23344,9.71199 0.78125,2.09375 0.38665,9.44055 0.1679,10.81555 -0.21875,1.375 -4.5435,14.19115 -4.32475,16.0349 0.21875,1.84375 12.50733,16.96873 12.72608,18.96873 0.21875,2 -0.53921,10.28674 -1.66421,14.34924"
           style="fill:none;stroke:#ebea29;stroke-width:2;stroke-linecap:butt;stroke-linejoin:miter;stroke-miterlimit:4;stroke-opacity:1;stroke-dasharray:none" />
        <path
           transform="translate(0,62.362)"
           id="path3213"
           d="m 349.58318,918.76777 c 10.34144,-5.39169 30.27643,-13.45321 34.2981,-16.14905 4.02167,-2.69585 26.02773,-29.48093 28.06066,-30.40901 2.03293,-0.92808 19.08319,-7.51647 21.55806,-8.70971 2.47487,-1.19324 47.9948,-47.55285 51.26517,-49.67417 3.27036,-2.12133 31.88213,-18.16637 35.55025,-20.64125 3.66811,-2.47487 13.29809,-11.49134 14.71231,-14.36396 1.41421,-2.87262 7.19064,-30.59705 7.85355,-32.14384 0.66291,-1.5468 14.47227,-32.76517 14.47227,-32.76517"
           style="fill:none;stroke:#ffb30b;stroke-width:3;stroke-linecap:butt;stroke-linejoin:miter;stroke-miterlimit:4;stroke-opacity:1;stroke-dasharray:none" />
        <path
           transform="translate(0,62.362)"
           id="path3217"
           d="m 284.71403,703.47715 c 0,0 7.34864,-7.24693 8.87989,-7.90318 1.53125,-0.65625 37.90252,-21.68808 39.12127,-24.12558 1.21875,-2.4375 3.47119,-10.41726 3.47119,-10.41726 0,0 2.62745,-8.38417 3.8462,-10.41542 1.21875,-2.03125 6.84251,-6.20343 6.84251,-6.20343"
           style="fill:none;stroke:#ffb30b;stroke-width:3;stroke-linecap:butt;stroke-linejoin:miter;stroke-miterlimit:4;stroke-opacity:1;stroke-dasharray:none" />
      </g>
      <text
         xml:space="preserve"
         style="font-size:13.33333302px;font-style:normal;font-variant:normal;font-weight:normal;font-stretch:normal;text-align:start;line-height:139.99999762%;letter-spacing:0px;word-spacing:0px;writing-mode:lr-tb;text-anchor:start;fill:#000000;fill-opacity:1;fill-rule:nonzero;stroke:none;font-family:Linux Libertine O;-inkscape-font-specification:Linux Libertine O"
         x="299.87332"
         y="751.12866"
         id="text4004"><tspan
           id="tspan4006"
           x="299.87332"
           y="751.12866">123</tspan></text>
      <text
         xml:space="preserve"
         style="font-size:13.33333302px;font-style:normal;font-variant:normal;font-weight:normal;font-stretch:normal;text-align:start;line-height:139.99999762%;letter-spacing:0px;word-spacing:0px;writing-mode:lr-tb;text-anchor:start;fill:#000000;fill-opacity:1;stroke:none;font-family:Linux Libertine O;-inkscape-font-specification:Linux Libertine O"
         x="321.87332"
         y="795.20868"
         id="text4008"><tspan
           id="tspan4010"
           x="321.87332"
           y="795.20868">178</tspan></text>
      <text
         xml:space="preserve"
         style="font-size:13.33333302px;font-style:normal;font-variant:normal;font-weight:normal;font-stretch:normal;text-align:start;line-height:139.99999762%;letter-spacing:0px;word-spacing:0px;writing-mode:lr-tb;text-anchor:start;fill:#000000;fill-opacity:1;stroke:none;font-family:Linux Libertine O;-inkscape-font-specification:Linux Libertine O"
         x="368.72665"
         y="829.62866"
         id="text4012"><tspan
           id="tspan4014"
           x="368.72665"
           y="829.62866">88</tspan></text>
      <text
         xml:space="preserve"
         style="font-size:13.33333302px;font-style:normal;font-variant:normal;font-weight:normal;font-stretch:normal;text-align:start;line-height:139.99999762%;letter-spacing:0px;word-spacing:0px;writing-mode:lr-tb;text-anchor:start;fill:#000000;fill-opacity:1;stroke:none;font-family:Linux Libertine O;-inkscape-font-specification:Linux Libertine O"
         x="516.22668"
         y="857.15533"
         id="text4016"><tspan
           id="tspan4018"
           x="516.22668"
           y="857.15533">85</tspan></text>
      <text
         xml:space="preserve"
         style="font-size:13.33333302px;font-style:normal;font-variant:normal;font-weight:normal;font-stretch:normal;text-align:start;line-height:139.99999762%;letter-spacing:0px;word-spacing:0px;writing-mode:lr-tb;text-anchor:start;fill:#000000;fill-opacity:1;stroke:none;font-family:Linux Libertine O;-inkscape-font-specification:Linux Libertine O"
         x="427.72665"
         y="889.62866"
         id="text4020"><tspan
           id="tspan4022"
           x="427.72665"
           y="889.62866">81</tspan></text>
      <text
         xml:space="preserve"
         style="font-size:13.33333302px;font-style:normal;font-variant:normal;font-weight:normal;font-stretch:normal;text-align:start;line-height:139.99999762%;letter-spacing:0px;word-spacing:0px;writing-mode:lr-tb;text-anchor:start;fill:#000000;fill-opacity:1;stroke:none;font-family:Linux Libertine O;-inkscape-font-specification:Linux Libertine O"
         x="487.72665"
         y="776.12866"
         id="text4024"><tspan
           id="tspan4026"
           x="487.72665"
           y="776.12866">81</tspan></text>
    </g>
    <g
       style="opacity:0.2"
       id="layer1-8"
       transform="matrix(2.1674226,0,0,2.1674226,-666.93044,-683.5764)">
      <path
         style="fill:#224455;fill-opacity:1;stroke:none"
         d="m 378.79217,370.84593 c -22.44545,23.55528 -8.61786,45.38741 -8.61786,45.38741 l 46.62485,64.4793 38.97926,37.52086 c -21.50201,25.72704 -44.15432,54.64613 -65.29689,84.07941 l -44.61402,-29.89736 c 0,0 -8.11496,-5.11336 -14.341,0.95018 -6.22604,6.06353 -1.5689,13.54551 -1.5689,13.54551 l 37.56505,48.5252 c -1.51911,2.27607 -4.50781,6.80591 -4.50781,6.80591 0,0 4.50775,-3.0108 6.78381,-4.52991 l 48.5252,37.56505 c 0,0 7.48198,4.65715 13.54552,-1.56889 6.06353,-6.22604 0.95017,-14.34101 0.95017,-14.34101 l -29.89736,-44.61402 c 29.43329,-21.14257 58.35237,-43.79488 84.07942,-65.29689 l 37.52085,38.97926 64.4793,46.62485 c 0,0 21.83214,13.82759 45.38742,-8.61786 11.65036,-11.10144 1.81196,-26.82586 1.81196,-26.82586 L 580.31761,530.74045 546.61955,496.2027 c 2.75468,-2.68411 5.35567,-5.27852 7.82237,-7.77818 22.45064,-22.27386 26.78664,-24.43753 21.74353,-30.75914 -1.37454,-1.72301 -7.88157,-8.41403 -11.20322,-11.82194 l 5.10443,-5.23701 c 1.60937,-1.76563 -1.12696,-4.30893 -1.12696,-4.30893 0,0 -2.56539,-2.75843 -4.33102,-1.14905 l -5.23701,5.10443 c -3.40792,-3.32165 -10.09894,-9.82868 -11.82195,-11.20323 -6.32161,-5.0431 -8.48528,-0.7071 -30.75914,21.74354 -2.49965,2.4667 -5.09406,5.06768 -7.77818,7.82236 L 474.49466,424.9175 405.61804,369.03396 c 0,0 -15.72443,-9.8384 -26.82587,1.81197 z"
         id="path3066-3" />
    </g>
    <text
       transform="translate(1961.0826,480.19555)"
       id="text2985"
       style="font-style:normal;font-variant:normal;font-weight:normal;font-stretch:normal;font-size:52.5px;line-height:139.99999762%;font-family:'Linux Libertine O';-inkscape-font-specification:'Linux Libertine O, Normal';text-align:center;letter-spacing:0px;word-spacing:0px;writing-mode:lr-tb;text-anchor:middle;fill:#000000;fill-opacity:1;stroke:none"
       xml:space="preserve"><textPath
         id="textPath4052"
         startOffset="50%"
         xlink:href="#path4050"><tspan
   style="font-style:normal;font-variant:normal;font-weight:normal;font-stretch:normal;font-size:52.5px;line-height:139.99999762%;font-family:'Linux Libertine O';-inkscape-font-specification:'Linux Libertine O, Normal';text-align:center;writing-mode:lr-tb;text-anchor:middle"
   id="tspan2987">Black Sheep RC Club</tspan></textPath></text>
    <text
       id="text2997"
       y="259.25397"
       x="150.81"
       style="font-style:normal;font-variant:normal;font-weight:normal;font-stretch:normal;font-size:80px;line-height:139.99999762%;font-family:'Linux Libertine O';-inkscape-font-specification:'Linux Libertine O, Normal';text-align:start;letter-spacing:0px;word-spacing:0px;writing-mode:lr-tb;text-anchor:start;fill:#000000;fill-opacity:1;stroke:none"
       xml:space="preserve"><tspan
         y="259.25397"
         x="150.81"
         id="tspan2999">Electric Fly-In</tspan></text>
    <text
       id="text3001"
       y="342.35089"
       x="381.97998"
       style="font-style:normal;font-variant:normal;font-weight:normal;font-stretch:normal;font-size:62.5px;line-height:139.99999762%;font-family:'Linux Libertine O';-inkscape-font-specification:'Linux Libertine O, Normal';text-align:center;letter-spacing:0px;word-spacing:0px;writing-mode:lr-tb;text-anchor:middle;fill:#000000;fill-opacity:1;stroke:none"
       xml:space="preserve"><tspan
         y="342.35089"
         x="381.97998"
         id="tspan4643">Saturday</tspan><tspan
         y="429.85089"
         x="381.97998"
         id="tspan4645">September 24<tspan
   id="tspan4647"
   style="font-style:normal;font-variant:normal;font-weight:normal;font-stretch:normal;font-size:62.5px;line-height:139.99999762%;font-family:'Linux Libertine O';-inkscape-font-specification:'Linux Libertine O, Normal';text-align:center;writing-mode:lr-tb;baseline-shift:super;text-anchor:middle">th</tspan></tspan></text>
    <path
       transform="matrix(0,4.0170941,-4.0170941,0,1410.1617,-1451.3643)"
       d="M 943.28046,743.92682 A 330.92596,330.92596 0 0 1 612.35449,1074.8528 330.92596,330.92596 0 0 1 281.42853,743.92682 330.92596,330.92596 0 0 1 612.35449,413.00085 330.92596,330.92596 0 0 1 943.28046,743.92682 Z"
       id="path4050"
       style="fill:none;stroke:#000000;stroke-opacity:1" />
    <g
       transform="matrix(3.4090909,0,0,3.4090909,618.75,906.112)"
       id="QRcode">
      <rect
         style="fill:#ffffff"
         x="0"
         y="0"
         width="33"
         height="33"
         id="rect7703" />
      <g
         id="Pattern">
        <rect
           style="fill:#000000"
           x="4"
           y="4"
           width="7"
           height="1"
           id="rect7706" />
        <rect
           style="fill:#000000"
           x="13"
           y="4"
           width="1"
           height="1"
           id="rect7708" />
        <rect
           style="fill:#000000"
           x="18"
           y="4"
           width="1"
           height="1"
           id="rect7710" />
        <rect
           style="fill:#000000"
           x="20"
           y="4"
           width="1"
           height="1"
           id="rect7712" />
        <rect
           style="fill:#000000"
           x="22"
           y="4"
           width="7"
           height="1"
           id="rect7714" />
        <rect
           style="fill:#000000"
           x="4"
           y="5"
           width="1"
           height="1"
           id="rect7716" />
        <rect
           style="fill:#000000"
           x="10"
           y="5"
           width="1"
           height="1"
           id="rect7718" />
        <rect
           style="fill:#000000"
           x="12"
           y="5"
           width="2"
           height="1"
           id="rect7720" />
        <rect
           style="fill:#000000"
           x="15"
           y="5"
           width="3"
           height="1"
           id="rect7722" />
        <rect
           style="fill:#000000"
           x="19"
           y="5"
           width="1"
           height="1"
           id="rect7724" />
        <rect
           style="fill:#000000"
           x="22"
           y="5"
           width="1"
           height="1"
           id="rect7726" />
        <rect
           style="fill:#000000"
           x="28"
           y="5"
           width="1"
           height="1"
           id="rect7728" />
        <rect
           style="fill:#000000"
           x="4"
           y="6"
           width="1"
           height="1"
           id="rect7730" />
        <rect
           style="fill:#000000"
           x="6"
           y="6"
           width="3"
           height="1"
           id="rect7732" />
        <rect
           style="fill:#000000"
           x="10"
           y="6"
           width="1"
           height="1"
           id="rect7734" />
        <rect
           style="fill:#000000"
           x="13"
           y="6"
           width="3"
           height="1"
           id="rect7736" />
        <rect
           style="fill:#000000"
           x="18"
           y="6"
           width="2"
           height="1"
           id="rect7738" />
        <rect
           style="fill:#000000"
           x="22"
           y="6"
           width="1"
           height="1"
           id="rect7740" />
        <rect
           style="fill:#000000"
           x="24"
           y="6"
           width="3"
           height="1"
           id="rect7742" />
        <rect
           style="fill:#000000"
           x="28"
           y="6"
           width="1"
           height="1"
           id="rect7744" />
        <rect
           style="fill:#000000"
           x="4"
           y="7"
           width="1"
           height="1"
           id="rect7746" />
        <rect
           style="fill:#000000"
           x="6"
           y="7"
           width="3"
           height="1"
           id="rect7748" />
        <rect
           style="fill:#000000"
           x="10"
           y="7"
           width="1"
           height="1"
           id="rect7750" />
        <rect
           style="fill:#000000"
           x="12"
           y="7"
           width="2"
           height="1"
           id="rect7752" />
        <rect
           style="fill:#000000"
           x="15"
           y="7"
           width="1"
           height="1"
           id="rect7754" />
        <rect
           style="fill:#000000"
           x="17"
           y="7"
           width="1"
           height="1"
           id="rect7756" />
        <rect
           style="fill:#000000"
           x="19"
           y="7"
           width="2"
           height="1"
           id="rect7758" />
        <rect
           style="fill:#000000"
           x="22"
           y="7"
           width="1"
           height="1"
           id="rect7760" />
        <rect
           style="fill:#000000"
           x="24"
           y="7"
           width="3"
           height="1"
           id="rect7762" />
        <rect
           style="fill:#000000"
           x="28"
           y="7"
           width="1"
           height="1"
           id="rect7764" />
        <rect
           style="fill:#000000"
           x="4"
           y="8"
           width="1"
           height="1"
           id="rect7766" />
        <rect
           style="fill:#000000"
           x="6"
           y="8"
           width="3"
           height="1"
           id="rect7768" />
        <rect
           style="fill:#000000"
           x="10"
           y="8"
           width="1"
           height="1"
           id="rect7770" />
        <rect
           style="fill:#000000"
           x="14"
           y="8"
           width="1"
           height="1"
           id="rect7772" />
        <rect
           style="fill:#000000"
           x="16"
           y="8"
           width="2"
           height="1"
           id="rect7774" />
        <rect
           style="fill:#000000"
           x="20"
           y="8"
           width="1"
           height="1"
           id="rect7776" />
        <rect
           style="fill:#000000"
           x="22"
           y="8"
           width="1"
           height="1"
           id="rect7778" />
        <rect
           style="fill:#000000"
           x="24"
           y="8"
           width="3"
           height="1"
           id="rect7780" />
        <rect
           style="fill:#000000"
           x="28"
           y="8"
           width="1"
           height="1"
           id="rect7782" />
        <rect
           style="fill:#000000"
           x="4"
           y="9"
           width="1"
           height="1"
           id="rect7784" />
        <rect
           style="fill:#000000"
           x="10"
           y="9"
           width="1"
           height="1"
           id="rect7786" />
        <rect
           style="fill:#000000"
           x="12"
           y="9"
           width="1"
           height="1"
           id="rect7788" />
        <rect
           style="fill:#000000"
           x="14"
           y="9"
           width="1"
           height="1"
           id="rect7790" />
        <rect
           style="fill:#000000"
           x="17"
           y="9"
           width="4"
           height="1"
           id="rect7792" />
        <rect
           style="fill:#000000"
           x="22"
           y="9"
           width="1"
           height="1"
           id="rect7794" />
        <rect
           style="fill:#000000"
           x="28"
           y="9"
           width="1"
           height="1"
           id="rect7796" />
        <rect
           style="fill:#000000"
           x="4"
           y="10"
           width="7"
           height="1"
           id="rect7798" />
        <rect
           style="fill:#000000"
           x="12"
           y="10"
           width="1"
           height="1"
           id="rect7800" />
        <rect
           style="fill:#000000"
           x="14"
           y="10"
           width="1"
           height="1"
           id="rect7802" />
        <rect
           style="fill:#000000"
           x="16"
           y="10"
           width="1"
           height="1"
           id="rect7804" />
        <rect
           style="fill:#000000"
           x="18"
           y="10"
           width="1"
           height="1"
           id="rect7806" />
        <rect
           style="fill:#000000"
           x="20"
           y="10"
           width="1"
           height="1"
           id="rect7808" />
        <rect
           style="fill:#000000"
           x="22"
           y="10"
           width="7"
           height="1"
           id="rect7810" />
        <rect
           style="fill:#000000"
           x="16"
           y="11"
           width="1"
           height="1"
           id="rect7812" />
        <rect
           style="fill:#000000"
           x="18"
           y="11"
           width="2"
           height="1"
           id="rect7814" />
        <rect
           style="fill:#000000"
           x="4"
           y="12"
           width="5"
           height="1"
           id="rect7816" />
        <rect
           style="fill:#000000"
           x="10"
           y="12"
           width="5"
           height="1"
           id="rect7818" />
        <rect
           style="fill:#000000"
           x="16"
           y="12"
           width="1"
           height="1"
           id="rect7820" />
        <rect
           style="fill:#000000"
           x="18"
           y="12"
           width="2"
           height="1"
           id="rect7822" />
        <rect
           style="fill:#000000"
           x="21"
           y="12"
           width="1"
           height="1"
           id="rect7824" />
        <rect
           style="fill:#000000"
           x="23"
           y="12"
           width="1"
           height="1"
           id="rect7826" />
        <rect
           style="fill:#000000"
           x="25"
           y="12"
           width="1"
           height="1"
           id="rect7828" />
        <rect
           style="fill:#000000"
           x="27"
           y="12"
           width="1"
           height="1"
           id="rect7830" />
        <rect
           style="fill:#000000"
           x="4"
           y="13"
           width="1"
           height="1"
           id="rect7832" />
        <rect
           style="fill:#000000"
           x="6"
           y="13"
           width="1"
           height="1"
           id="rect7834" />
        <rect
           style="fill:#000000"
           x="8"
           y="13"
           width="1"
           height="1"
           id="rect7836" />
        <rect
           style="fill:#000000"
           x="11"
           y="13"
           width="1"
           height="1"
           id="rect7838" />
        <rect
           style="fill:#000000"
           x="13"
           y="13"
           width="1"
           height="1"
           id="rect7840" />
        <rect
           style="fill:#000000"
           x="17"
           y="13"
           width="1"
           height="1"
           id="rect7842" />
        <rect
           style="fill:#000000"
           x="20"
           y="13"
           width="1"
           height="1"
           id="rect7844" />
        <rect
           style="fill:#000000"
           x="23"
           y="13"
           width="1"
           height="1"
           id="rect7846" />
        <rect
           style="fill:#000000"
           x="27"
           y="13"
           width="1"
           height="1"
           id="rect7848" />
        <rect
           style="fill:#000000"
           x="4"
           y="14"
           width="1"
           height="1"
           id="rect7850" />
        <rect
           style="fill:#000000"
           x="10"
           y="14"
           width="4"
           height="1"
           id="rect7852" />
        <rect
           style="fill:#000000"
           x="15"
           y="14"
           width="3"
           height="1"
           id="rect7854" />
        <rect
           style="fill:#000000"
           x="19"
           y="14"
           width="3"
           height="1"
           id="rect7856" />
        <rect
           style="fill:#000000"
           x="23"
           y="14"
           width="3"
           height="1"
           id="rect7858" />
        <rect
           style="fill:#000000"
           x="27"
           y="14"
           width="2"
           height="1"
           id="rect7860" />
        <rect
           style="fill:#000000"
           x="6"
           y="15"
           width="1"
           height="1"
           id="rect7862" />
        <rect
           style="fill:#000000"
           x="9"
           y="15"
           width="1"
           height="1"
           id="rect7864" />
        <rect
           style="fill:#000000"
           x="11"
           y="15"
           width="1"
           height="1"
           id="rect7866" />
        <rect
           style="fill:#000000"
           x="13"
           y="15"
           width="3"
           height="1"
           id="rect7868" />
        <rect
           style="fill:#000000"
           x="19"
           y="15"
           width="3"
           height="1"
           id="rect7870" />
        <rect
           style="fill:#000000"
           x="23"
           y="15"
           width="2"
           height="1"
           id="rect7872" />
        <rect
           style="fill:#000000"
           x="28"
           y="15"
           width="1"
           height="1"
           id="rect7874" />
        <rect
           style="fill:#000000"
           x="4"
           y="16"
           width="2"
           height="1"
           id="rect7876" />
        <rect
           style="fill:#000000"
           x="7"
           y="16"
           width="2"
           height="1"
           id="rect7878" />
        <rect
           style="fill:#000000"
           x="10"
           y="16"
           width="4"
           height="1"
           id="rect7880" />
        <rect
           style="fill:#000000"
           x="15"
           y="16"
           width="1"
           height="1"
           id="rect7882" />
        <rect
           style="fill:#000000"
           x="17"
           y="16"
           width="2"
           height="1"
           id="rect7884" />
        <rect
           style="fill:#000000"
           x="22"
           y="16"
           width="1"
           height="1"
           id="rect7886" />
        <rect
           style="fill:#000000"
           x="24"
           y="16"
           width="1"
           height="1"
           id="rect7888" />
        <rect
           style="fill:#000000"
           x="26"
           y="16"
           width="3"
           height="1"
           id="rect7890" />
        <rect
           style="fill:#000000"
           x="4"
           y="17"
           width="3"
           height="1"
           id="rect7892" />
        <rect
           style="fill:#000000"
           x="8"
           y="17"
           width="1"
           height="1"
           id="rect7894" />
        <rect
           style="fill:#000000"
           x="14"
           y="17"
           width="1"
           height="1"
           id="rect7896" />
        <rect
           style="fill:#000000"
           x="16"
           y="17"
           width="2"
           height="1"
           id="rect7898" />
        <rect
           style="fill:#000000"
           x="20"
           y="17"
           width="1"
           height="1"
           id="rect7900" />
        <rect
           style="fill:#000000"
           x="23"
           y="17"
           width="1"
           height="1"
           id="rect7902" />
        <rect
           style="fill:#000000"
           x="25"
           y="17"
           width="1"
           height="1"
           id="rect7904" />
        <rect
           style="fill:#000000"
           x="27"
           y="17"
           width="1"
           height="1"
           id="rect7906" />
        <rect
           style="fill:#000000"
           x="4"
           y="18"
           width="1"
           height="1"
           id="rect7908" />
        <rect
           style="fill:#000000"
           x="6"
           y="18"
           width="1"
           height="1"
           id="rect7910" />
        <rect
           style="fill:#000000"
           x="10"
           y="18"
           width="1"
           height="1"
           id="rect7912" />
        <rect
           style="fill:#000000"
           x="13"
           y="18"
           width="2"
           height="1"
           id="rect7914" />
        <rect
           style="fill:#000000"
           x="17"
           y="18"
           width="1"
           height="1"
           id="rect7916" />
        <rect
           style="fill:#000000"
           x="19"
           y="18"
           width="3"
           height="1"
           id="rect7918" />
        <rect
           style="fill:#000000"
           x="23"
           y="18"
           width="3"
           height="1"
           id="rect7920" />
        <rect
           style="fill:#000000"
           x="27"
           y="18"
           width="2"
           height="1"
           id="rect7922" />
        <rect
           style="fill:#000000"
           x="4"
           y="19"
           width="1"
           height="1"
           id="rect7924" />
        <rect
           style="fill:#000000"
           x="6"
           y="19"
           width="1"
           height="1"
           id="rect7926" />
        <rect
           style="fill:#000000"
           x="9"
           y="19"
           width="1"
           height="1"
           id="rect7928" />
        <rect
           style="fill:#000000"
           x="13"
           y="19"
           width="1"
           height="1"
           id="rect7930" />
        <rect
           style="fill:#000000"
           x="16"
           y="19"
           width="1"
           height="1"
           id="rect7932" />
        <rect
           style="fill:#000000"
           x="20"
           y="19"
           width="1"
           height="1"
           id="rect7934" />
        <rect
           style="fill:#000000"
           x="23"
           y="19"
           width="1"
           height="1"
           id="rect7936" />
        <rect
           style="fill:#000000"
           x="25"
           y="19"
           width="1"
           height="1"
           id="rect7938" />
        <rect
           style="fill:#000000"
           x="28"
           y="19"
           width="1"
           height="1"
           id="rect7940" />
        <rect
           style="fill:#000000"
           x="4"
           y="20"
           width="1"
           height="1"
           id="rect7942" />
        <rect
           style="fill:#000000"
           x="7"
           y="20"
           width="5"
           height="1"
           id="rect7944" />
        <rect
           style="fill:#000000"
           x="13"
           y="20"
           width="1"
           height="1"
           id="rect7946" />
        <rect
           style="fill:#000000"
           x="16"
           y="20"
           width="2"
           height="1"
           id="rect7948" />
        <rect
           style="fill:#000000"
           x="20"
           y="20"
           width="5"
           height="1"
           id="rect7950" />
        <rect
           style="fill:#000000"
           x="26"
           y="20"
           width="1"
           height="1"
           id="rect7952" />
        <rect
           style="fill:#000000"
           x="12"
           y="21"
           width="3"
           height="1"
           id="rect7954" />
        <rect
           style="fill:#000000"
           x="18"
           y="21"
           width="3"
           height="1"
           id="rect7956" />
        <rect
           style="fill:#000000"
           x="24"
           y="21"
           width="3"
           height="1"
           id="rect7958" />
        <rect
           style="fill:#000000"
           x="4"
           y="22"
           width="7"
           height="1"
           id="rect7960" />
        <rect
           style="fill:#000000"
           x="12"
           y="22"
           width="1"
           height="1"
           id="rect7962" />
        <rect
           style="fill:#000000"
           x="15"
           y="22"
           width="2"
           height="1"
           id="rect7964" />
        <rect
           style="fill:#000000"
           x="18"
           y="22"
           width="1"
           height="1"
           id="rect7966" />
        <rect
           style="fill:#000000"
           x="20"
           y="22"
           width="1"
           height="1"
           id="rect7968" />
        <rect
           style="fill:#000000"
           x="22"
           y="22"
           width="1"
           height="1"
           id="rect7970" />
        <rect
           style="fill:#000000"
           x="24"
           y="22"
           width="5"
           height="1"
           id="rect7972" />
        <rect
           style="fill:#000000"
           x="4"
           y="23"
           width="1"
           height="1"
           id="rect7974" />
        <rect
           style="fill:#000000"
           x="10"
           y="23"
           width="1"
           height="1"
           id="rect7976" />
        <rect
           style="fill:#000000"
           x="13"
           y="23"
           width="1"
           height="1"
           id="rect7978" />
        <rect
           style="fill:#000000"
           x="15"
           y="23"
           width="1"
           height="1"
           id="rect7980" />
        <rect
           style="fill:#000000"
           x="18"
           y="23"
           width="3"
           height="1"
           id="rect7982" />
        <rect
           style="fill:#000000"
           x="24"
           y="23"
           width="2"
           height="1"
           id="rect7984" />
        <rect
           style="fill:#000000"
           x="28"
           y="23"
           width="1"
           height="1"
           id="rect7986" />
        <rect
           style="fill:#000000"
           x="4"
           y="24"
           width="1"
           height="1"
           id="rect7988" />
        <rect
           style="fill:#000000"
           x="6"
           y="24"
           width="3"
           height="1"
           id="rect7990" />
        <rect
           style="fill:#000000"
           x="10"
           y="24"
           width="1"
           height="1"
           id="rect7992" />
        <rect
           style="fill:#000000"
           x="12"
           y="24"
           width="1"
           height="1"
           id="rect7994" />
        <rect
           style="fill:#000000"
           x="15"
           y="24"
           width="2"
           height="1"
           id="rect7996" />
        <rect
           style="fill:#000000"
           x="18"
           y="24"
           width="9"
           height="1"
           id="rect7998" />
        <rect
           style="fill:#000000"
           x="4"
           y="25"
           width="1"
           height="1"
           id="rect8000" />
        <rect
           style="fill:#000000"
           x="6"
           y="25"
           width="3"
           height="1"
           id="rect8002" />
        <rect
           style="fill:#000000"
           x="10"
           y="25"
           width="1"
           height="1"
           id="rect8004" />
        <rect
           style="fill:#000000"
           x="12"
           y="25"
           width="2"
           height="1"
           id="rect8006" />
        <rect
           style="fill:#000000"
           x="16"
           y="25"
           width="1"
           height="1"
           id="rect8008" />
        <rect
           style="fill:#000000"
           x="18"
           y="25"
           width="2"
           height="1"
           id="rect8010" />
        <rect
           style="fill:#000000"
           x="21"
           y="25"
           width="2"
           height="1"
           id="rect8012" />
        <rect
           style="fill:#000000"
           x="24"
           y="25"
           width="1"
           height="1"
           id="rect8014" />
        <rect
           style="fill:#000000"
           x="26"
           y="25"
           width="3"
           height="1"
           id="rect8016" />
        <rect
           style="fill:#000000"
           x="4"
           y="26"
           width="1"
           height="1"
           id="rect8018" />
        <rect
           style="fill:#000000"
           x="6"
           y="26"
           width="3"
           height="1"
           id="rect8020" />
        <rect
           style="fill:#000000"
           x="10"
           y="26"
           width="1"
           height="1"
           id="rect8022" />
        <rect
           style="fill:#000000"
           x="12"
           y="26"
           width="2"
           height="1"
           id="rect8024" />
        <rect
           style="fill:#000000"
           x="17"
           y="26"
           width="1"
           height="1"
           id="rect8026" />
        <rect
           style="fill:#000000"
           x="20"
           y="26"
           width="1"
           height="1"
           id="rect8028" />
        <rect
           style="fill:#000000"
           x="23"
           y="26"
           width="1"
           height="1"
           id="rect8030" />
        <rect
           style="fill:#000000"
           x="26"
           y="26"
           width="1"
           height="1"
           id="rect8032" />
        <rect
           style="fill:#000000"
           x="28"
           y="26"
           width="1"
           height="1"
           id="rect8034" />
        <rect
           style="fill:#000000"
           x="4"
           y="27"
           width="1"
           height="1"
           id="rect8036" />
        <rect
           style="fill:#000000"
           x="10"
           y="27"
           width="1"
           height="1"
           id="rect8038" />
        <rect
           style="fill:#000000"
           x="12"
           y="27"
           width="1"
           height="1"
           id="rect8040" />
        <rect
           style="fill:#000000"
           x="14"
           y="27"
           width="1"
           height="1"
           id="rect8042" />
        <rect
           style="fill:#000000"
           x="16"
           y="27"
           width="1"
           height="1"
           id="rect8044" />
        <rect
           style="fill:#000000"
           x="18"
           y="27"
           width="8"
           height="1"
           id="rect8046" />
        <rect
           style="fill:#000000"
           x="28"
           y="27"
           width="1"
           height="1"
           id="rect8048" />
        <rect
           style="fill:#000000"
           x="4"
           y="28"
           width="7"
           height="1"
           id="rect8050" />
        <rect
           style="fill:#000000"
           x="12"
           y="28"
           width="7"
           height="1"
           id="rect8052" />
        <rect
           style="fill:#000000"
           x="21"
           y="28"
           width="1"
           height="1"
           id="rect8054" />
        <rect
           style="fill:#000000"
           x="23"
           y="28"
           width="6"
           height="1"
           id="rect8056" />
      </g>
    </g>
    <flowRoot
       style="fill:black;stroke:none;stroke-opacity:1;stroke-width:1px;stroke-linejoin:miter;stroke-linecap:butt;fill-opacity:1;font-family:Linux Libertine O;font-style:normal;font-weight:normal;font-size:40px;line-height:139.99999761999995940%;letter-spacing:0px;word-spacing:0px;-inkscape-font-specification:Linux Libertine O;font-stretch:normal;font-variant:normal;text-anchor:start;text-align:start;writing-mode:lr"
       id="flowRoot3727"
       xml:space="preserve"><flowRegion
         id="flowRegion3729"><rect
           y="468.39954"
           x="43.948597"
           height="40.478973"
           width="38.16589"
           id="rect3731" /></flowRegion><flowPara
         id="flowPara3733" /></flowRoot>    <text
       id="text3735"
       y="1007.074"
       x="304.81744"
       style="font-size:24px;font-style:normal;font-variant:normal;font-weight:normal;font-stretch:normal;text-align:start;line-height:139.99999762%;letter-spacing:0px;word-spacing:0px;writing-mode:lr-tb;text-anchor:start;fill:#000000;fill-opacity:1;stroke:none;font-family:Linux Libertine O;-inkscape-font-specification:Linux Libertine O"
       xml:space="preserve"><tspan
         y="1007.074"
         x="304.81744"
         id="tspan3737">www.bsrcc.com</tspan></text>
    <text
       id="text3739"
       y="592.92206"
       x="107.75455"
       style="font-style:normal;font-variant:normal;font-weight:normal;font-stretch:normal;font-size:22px;line-height:139.99999762%;font-family:'Linux Libertine O';-inkscape-font-specification:'Linux Libertine O, Normal';text-align:start;letter-spacing:0px;word-spacing:0px;writing-mode:lr-tb;text-anchor:start;fill:#000000;fill-opacity:1;stroke:none"
       xml:space="preserve"><tspan
         y="592.92206"
         x="107.75455"
         id="tspan4679">Come join us for a relaxed day of flying your favorite electric</tspan><tspan
         y="623.72205"
         x="107.75455"
         id="tspan4681">aircraft. Share and see the latest electronic technology.</tspan><tspan
         y="654.52203"
         x="107.75455"
         id="tspan4683">Bring a friend.</tspan><tspan
         y="685.32208"
         x="107.75455"
         id="tspan4685">300 foot paved, and 700 foot grass runways.</tspan><tspan
         y="716.12207"
         x="107.75455"
         id="tspan4687">Electrical outlets in the pits.</tspan><tspan
         y="746.92206"
         x="107.75455"
         id="tspan4689">Pilot fee: $15 (includes lunch)</tspan><tspan
         y="777.72205"
         x="107.75455"
         id="tspan4691">No charge for spectators.</tspan></text>
    <image
       transform="matrix(0.37911752,0,0,0.37911752,-99.693569,260.88457)"
       clip-path="url(#clipPath4610)"
       width="1024"
       height="768"
       xlink:href="file:///home/tortxof/www/blacksheeprcclub-www/photos/large/2012-06-09.12-13-35.2682b5c2.jpg"
       id="image4605"
       x="327.8793"
       y="1167.2192" />
    <text
       id="text4624"
       y="479.017"
       x="403.98868"
       style="font-style:normal;font-variant:normal;font-weight:normal;font-stretch:normal;font-size:28px;line-height:139.99999762%;font-family:'Linux Libertine O';-inkscape-font-specification:'Linux Libertine O';text-align:start;letter-spacing:0px;word-spacing:0px;writing-mode:lr-tb;text-anchor:start;fill:#000000;fill-opacity:1;stroke:none"
       xml:space="preserve"><tspan
         y="479.017"
         x="403.98868"
         id="tspan4626">Location:</tspan><tspan
         id="tspan4628"
         y="518.21698"
         x="403.98868">802 Lockaby Rd</tspan><tspan
         id="tspan4632"
         y="557.41699"
         x="403.98868">Pendleton, SC 29670</tspan></text>
    <text
       id="text4636"
       y="479.185"
       x="130.08792"
       style="font-style:normal;font-variant:normal;font-weight:normal;font-stretch:normal;font-size:28px;line-height:139.99999762%;font-family:'Linux Libertine O';-inkscape-font-specification:'Linux Libertine O';text-align:start;letter-spacing:0px;word-spacing:0px;writing-mode:lr-tb;text-anchor:start;fill:#000000;fill-opacity:1;stroke:none"
       xml:space="preserve"><tspan
         y="479.185"
         x="130.08792"
         id="tspan4638">Time:</tspan><tspan
         id="tspan4640"
         y="518.38501"
         x="130.08792">9AM to 5PM</tspan></text>
    <text
       id="text4642"
       y="1004.554"
       x="44.916"
       style="font-size:12px;font-style:normal;font-variant:normal;font-weight:normal;font-stretch:normal;text-align:start;line-height:139.99999762%;letter-spacing:0px;word-spacing:0px;writing-mode:lr-tb;text-anchor:start;fill:#000000;fill-opacity:1;stroke:none;font-family:Linux Libertine O;-inkscape-font-specification:Linux Libertine O"
       xml:space="preserve"><tspan
         y="1004.554"
         x="44.916"
         id="tspan4644">AMA membership required to fly.</tspan></text>
  </g>
</svg>
